<svg width="88" height="88" viewBox="0 0 88 88" fill="none" xmlns="http://www.w3.org/2000/svg">
<g id="flower 1" clip-path="url(#clip0_43_615)">
<g id="Group">
<g id="Group_2">
<path id="Vector" d="M80.6924 7.30806C63.1916 1.15259 38.3804 12.7222 38.3804 12.7222L35.5664 15.536L50.3304 37.67L72.4643 52.4339L75.2781 49.6201C75.2783 49.6201 86.8477 24.8087 80.6924 7.30806Z" fill="#F6CCAF"/>
<g id="Group_3">
<path id="Vector_2" d="M65.1091 43.2907L66.528 38.8337C68.6232 32.2522 75.6571 28.6152 82.2387 30.7104L86.6956 32.1293L85.2768 36.5863C83.1816 43.1678 76.1476 46.8047 69.5661 44.7096L65.1091 43.2907Z" fill="#BEE49D"/>
<path id="Vector_3" d="M82.2387 30.7106C77.4063 29.1723 72.3326 30.7268 69.1464 34.2652C71.6214 33.3943 74.3895 33.2909 77.0823 34.1482L81.5393 35.567L80.1204 40.024C79.5635 41.7732 78.6553 43.3117 77.502 44.5925C81.0762 43.3347 84.0387 40.4752 85.2768 36.5865L86.6956 32.1295L82.2387 30.7106Z" fill="#AAE077"/>
<g id="Group_4">
<path id="Vector_4" d="M63.6114 47.0345C66.1184 51.8832 73.1021 54.1065 78.781 51.1703L83.7627 48.5945C79.5833 40.5114 69.8799 37.1445 61.6569 40.7233C61.0765 40.976 60.8412 41.6766 61.132 42.239L63.6114 47.0345Z" fill="#BEE49D"/>
</g>
<path id="Vector_5" d="M66.0079 39.48C70.4404 40.7198 74.3663 43.7261 76.6471 48.1372L71.6654 50.7129C70.8108 51.1548 69.9263 51.4778 69.0322 51.6945C72.0148 52.8399 75.6021 52.8138 78.781 51.1703L83.7627 48.5945C80.3042 41.9056 73.0628 38.4463 66.0079 39.48Z" fill="#AAE077"/>
</g>
<g id="Group_5">
<path id="Vector_6" d="M44.6941 22.8757L49.1511 21.4569C55.7327 19.3617 59.3696 12.3278 57.2744 5.74621L55.8556 1.28925L51.3986 2.7081C44.817 4.80329 41.1801 11.8372 43.2753 18.4188L44.6941 22.8757Z" fill="#BEE49D"/>
<path id="Vector_7" d="M49.6798 7.86444L54.1368 6.44559L55.5556 10.9026C56.0936 12.5926 56.2512 14.3119 56.0806 15.9702C57.8612 12.9984 58.4079 9.30684 57.2744 5.74621L55.8556 1.28925L51.3986 2.7081C46.5069 4.26531 43.2445 8.55109 42.7504 13.3511C44.261 10.8299 46.6589 8.8261 49.6798 7.86444Z" fill="#AAE077"/>
<g id="Group_6">
<path id="Vector_8" d="M40.9503 24.3735C36.1016 21.8665 33.8784 14.8827 36.8146 9.20406L39.3903 4.22235C47.4734 8.40174 50.8403 18.1051 47.2615 26.3281C47.0088 26.9085 46.3081 27.1438 45.7459 26.853L40.9503 24.3735Z" fill="#BEE49D"/>
</g>
<path id="Vector_9" d="M36.8147 16.079L39.3905 11.0973C44.194 13.5809 47.3318 18.0154 48.3364 22.9307C49.8434 15.5833 46.3813 7.83676 39.3905 4.22217L36.8147 9.20388C35.3252 12.0846 35.1656 15.3002 36.0005 18.0979C36.2063 17.4136 36.4742 16.7373 36.8147 16.079Z" fill="#AAE077"/>
</g>
<path id="Vector_10" d="M30.2954 73.5186L14.4819 57.7051C13.0263 56.2495 13.0263 53.8896 14.4819 52.434C15.9376 50.9783 18.2975 50.9783 19.7531 52.434L35.5666 68.2474C37.0222 69.703 37.0222 72.0629 35.5666 73.5186C34.1109 74.9742 31.7509 74.9742 30.2954 73.5186Z" fill="#FEC165"/>
<path id="Vector_11" d="M19.8254 57.8113C21.2811 56.3557 23.6575 56.3385 25.1129 57.794L19.7529 52.434C18.2973 50.9783 15.9374 50.9783 14.4818 52.434C13.0261 53.8896 13.0261 56.2495 14.4818 57.7051L19.5515 62.7748C18.3779 61.3113 18.4683 59.1685 19.8254 57.8113Z" fill="#FDB441"/>
<path id="Vector_12" d="M22.3887 86.6963C22.3887 86.6963 16.4214 87.3924 8.51485 79.4856C1.46183 72.433 1.30405 65.6118 1.30405 65.6118L14.4819 57.7051L30.2954 73.5185L22.3887 86.6963Z" fill="#FFDEC7"/>
<path id="Vector_13" d="M6.7115 71.152L19.865 63.0881L14.4819 57.7051L1.30405 65.6118C1.30405 65.6118 1.46183 72.433 8.51467 79.4856C9.56175 80.5327 10.5743 81.4275 11.5439 82.1944C6.82305 76.1826 6.7115 71.152 6.7115 71.152Z" fill="#F6CCAF"/>
<g id="Group_7">
<path id="Vector_14" d="M53.9706 34.0299V28.6286C53.9706 20.6526 60.4364 14.1868 68.4124 14.1868H73.8137V19.588C73.8137 27.564 67.3478 34.0299 59.3718 34.0299H53.9706Z" fill="#F47C7C"/>
<path id="Vector_15" d="M68.4124 14.1868C63.1012 14.1868 58.4628 17.0558 55.954 21.3266C58.097 20.0679 60.5911 19.3431 63.2561 19.3431H68.6574V24.7444C68.6574 27.4092 67.9325 29.9035 66.6739 32.0464C70.9447 29.5377 73.8137 24.8992 73.8137 19.588V14.1868H68.4124Z" fill="#EE6161"/>
<g id="Group_8">
<path id="Vector_16" d="M53.634 38.6739C58.091 43.1309 66.5544 43.1309 71.7745 37.9107L76.3539 33.3314C68.9238 25.9013 57.0669 25.5953 49.2724 32.4137C48.7223 32.895 48.7089 33.7486 49.2257 34.2654L53.634 38.6739Z" fill="#F47C7C"/>
<path id="Vector_17" d="M76.3539 33.3316C70.3459 27.3236 61.4443 25.9747 54.1357 29.2827C59.6418 28.92 65.2703 30.842 69.4788 35.0504L64.8994 39.6297C63.9689 40.5603 62.9342 41.3219 61.8386 41.9248C65.3427 41.9726 69.0126 40.6729 71.7745 37.911L76.3539 33.3316Z" fill="#EE6161"/>
<path id="Vector_18" d="M49.3264 34.3665C44.8694 29.9095 44.8694 21.4461 50.0895 16.226L54.6689 11.6466C62.099 19.0767 62.405 30.9336 55.5866 38.728C55.1053 39.2782 54.2517 39.2916 53.7349 38.7748L49.3264 34.3665Z" fill="#F47C7C"/>
<path id="Vector_19" d="M48.3708 23.1011L52.9501 18.5217C57.1586 22.7302 59.0805 28.3586 58.7178 33.8648C62.0258 26.5562 60.6767 17.6546 54.6689 11.6466L50.0896 16.226C47.3275 18.9879 46.0279 22.6578 46.0757 26.1619C46.6788 25.0663 47.4402 24.0316 48.3708 23.1011Z" fill="#EE6161"/>
</g>
</g>
<g id="Group_9">
<path id="Vector_20" d="M48.7195 54.3395C48.784 54.3718 53.5952 64.4238 60.1384 60.8527C67.6875 56.7327 72.4643 52.4339 72.4643 52.4339C72.4643 52.4339 66.6333 43.5084 56.4724 39.6659C53.4611 38.5272 51.0576 39.9849 49.1891 42.4469C45.4057 47.4317 48.7195 54.3395 48.7195 54.3395Z" fill="#FFDEC7"/>
<path id="Vector_21" d="M35.5664 15.536C35.5664 15.536 20.5862 32.1826 19.7529 52.4339L35.5664 68.2474C47.3221 68.0597 60.2273 60.8035 60.2273 60.8035C62.752 53.3007 56.9535 36.9231 50.4935 30.4633L35.5664 15.536Z" fill="#FFDEC7"/>
<g id="Group_10">
<path id="Vector_22" d="M35.5664 15.536C35.5664 15.536 20.5862 32.1827 19.7529 52.4339L26.628 59.309C27.4613 39.0579 42.4415 22.4111 42.4415 22.4111L35.5664 15.536Z" fill="#F6CCAF"/>
<path id="Vector_23" d="M60.223 60.8059C62.3833 59.6233 64.3137 58.428 65.9687 57.3244C66.145 53.2818 65.0178 48.1067 63.1657 43.2187C61.224 41.8743 59.0013 40.6278 56.5192 39.6842C59.9211 46.9784 61.8989 55.8359 60.2273 60.8035C60.2273 60.8035 60.2247 60.8049 60.223 60.8059Z" fill="#F6CCAF"/>
</g>
</g>
</g>
<path id="Vector_24" d="M87.0866 30.9011L82.7959 29.5352C83.2433 27.0036 83.5422 24.5464 83.6852 22.2161C83.7287 21.5056 83.1879 20.8942 82.4774 20.8505C81.768 20.8069 81.1555 21.3478 81.1118 22.0583C80.9774 24.2513 80.6971 26.5667 80.2794 28.9556C78.1129 28.666 75.8967 28.8956 73.8242 29.633C73.2967 29.2901 72.756 28.9714 72.2025 28.6784C74.0805 26.0309 75.1026 22.8612 75.1026 19.5877V14.1868C75.1026 13.4749 74.5256 12.8977 73.8135 12.8977H68.4123C65.139 12.8977 61.9689 13.9199 59.3216 15.7978C59.0245 15.2365 58.702 14.6878 58.3541 14.1538C59.0877 12.0889 59.3173 9.88162 59.0315 7.72266C67.1376 6.30106 74.0751 6.50267 79.6754 8.32475C80.4814 10.8063 80.9745 13.5847 81.1417 16.5941C81.1811 17.3035 81.7878 17.849 82.5002 17.8097C83.2111 17.7701 83.7555 17.1619 83.7158 16.451C83.5215 12.9581 82.9134 9.73793 81.9081 6.88029C81.7784 6.51161 81.4886 6.22165 81.1197 6.09206C74.9677 3.92828 67.3459 3.63059 58.4549 5.20585L57.0836 0.898247C56.8677 0.219844 56.1426 -0.154678 55.4642 0.0608574C52.6658 1.21725 47.9644 1.44671 44.3036 6.1627C43.0384 4.95079 41.5891 3.908 39.9823 3.07714C39.3504 2.7504 38.572 2.99791 38.2453 3.63025C36.5686 7.39524 34.0396 10.0507 34.2194 15.1206C32.8034 16.7808 27.8482 22.8938 23.8304 31.5816C23.5316 32.2278 23.813 32.9939 24.4593 33.2928C25.1059 33.5918 25.8718 33.3101 26.1705 32.6639C29.6044 25.2384 33.8443 19.6544 35.6473 17.4403L49.582 31.375C55.2096 37.0026 61.1872 52.3272 59.1461 59.923C56.8354 61.1489 46.0355 66.5981 36.0868 66.9448L21.0679 51.9259C21.3117 47.467 22.2785 42.8238 23.9443 38.1152C24.1819 37.444 23.8302 36.7075 23.1592 36.4699C22.488 36.2321 21.7513 36.5841 21.514 37.2553C19.9514 41.671 18.9765 46.042 18.603 50.28C16.8822 49.7494 14.9302 50.1628 13.5703 51.5223C12.0065 53.0862 11.6946 55.4338 12.6315 57.3119L0.640932 64.5065C0.24355 64.7449 0.00463934 65.1784 0.0152958 65.6416C0.0221709 65.9412 0.269503 73.0635 7.60302 80.3973C11.2857 84.08 16.8124 88 22.014 88C22.6157 88 23.1391 87.9507 23.4938 87.3596L30.6883 75.369C32.5906 76.3181 34.9304 75.9775 36.4778 74.4301C37.8286 73.0793 38.2459 71.1434 37.7308 69.4305C49.0141 68.5202 60.3527 62.2119 60.8591 61.9271C60.8593 61.927 60.8596 61.9268 60.8598 61.9268C67.1988 58.4542 71.5554 54.9102 72.896 53.7671C77.9169 53.9321 80.5077 51.4666 84.3546 49.7396C84.9871 49.4127 85.2346 48.635 84.9077 48.0024C84.077 46.3959 83.0341 44.9468 81.8217 43.6816C84.0155 41.9788 85.6545 39.6492 86.5052 36.9775L87.924 32.5205C88.1399 31.8421 87.765 31.1171 87.0866 30.9011ZM47.3742 25.5208C47.3756 25.4857 47.3783 25.4508 47.3799 25.4158C47.6564 19.2701 51.3255 17.0225 54.6373 13.5012C60.0464 19.688 60.7723 28.9518 56.0718 35.9787C52.699 29.965 50.176 28.6168 47.3742 25.5208ZM70.8631 36.9993C68.5052 39.3572 65.0976 40.7839 61.476 40.6205C60.2259 39.9018 58.8859 39.2387 57.4585 38.6676C57.4394 38.6277 57.4198 38.5883 57.4006 38.5485C59.5255 35.7896 60.9904 32.4581 61.5344 28.8312C66.1665 28.6363 70.8161 30.1577 74.4993 33.3631L70.8631 36.9993ZM60.4064 18.1969C62.6973 16.4364 65.5072 15.4759 68.4124 15.4759H72.5246V19.5881C72.5246 22.4939 71.5636 25.3042 69.8028 27.5954C67.2789 26.6411 64.5694 26.1705 61.7623 26.2427C61.8347 23.4837 61.3699 20.7529 60.4064 18.1969ZM55.0182 2.9087C55.5661 5.12215 57.1085 7.68347 56.3846 11.5851C55.7643 10.8924 55.4953 10.6265 55.276 10.5095C54.7775 10.2434 54.1605 10.3321 53.7573 10.7352L49.4343 15.0581C48.8079 12.5043 47.654 10.1439 46.0638 8.11042C49.0285 3.95046 53.1476 3.70948 55.0182 2.9087ZM39.9197 6.00509C44.1262 8.62519 46.7292 12.9649 47.2833 17.6421C46.2293 19.2421 45.4286 21.1675 45.0479 23.1943L36.792 14.9384C36.6841 10.9481 38.6442 8.8715 39.9197 6.00509ZM34.6549 72.6071C33.7022 73.56 32.1597 73.56 31.2069 72.6071L25.6272 67.0275C25.1238 66.524 24.3077 66.524 23.8041 67.0275C23.3006 67.5309 23.3006 68.3471 23.8041 68.8504L28.672 73.7185L21.652 85.4186C20.7996 85.3752 19.0606 85.1265 16.7093 83.983L19.9425 78.7078C20.3144 78.1009 20.1242 77.3071 19.5169 76.9352C18.9104 76.5632 18.1165 76.7535 17.7443 77.3607L14.4647 82.7118C11.237 80.63 7.6649 77.2312 5.3992 73.4686L10.6401 70.2565C11.2472 69.8844 11.4376 69.0908 11.0657 68.4839C10.6936 67.877 9.90017 67.6864 9.2931 68.0584L4.18953 71.1862C3.18129 68.9898 2.80711 67.2242 2.67012 66.2959L14.282 59.3287L19.8841 64.9307C20.3877 65.4341 21.2037 65.4341 21.7072 64.9307C22.2106 64.4273 22.2106 63.611 21.7072 63.1078L15.3934 56.7937C14.4429 55.843 14.4429 54.2961 15.3936 53.3454C16.3458 52.3931 17.8879 52.3924 18.8409 53.3451C18.8411 53.3453 18.8413 53.3454 18.8413 53.3456L34.6547 69.1589C35.6078 70.1116 35.608 71.6542 34.6549 72.6071ZM62.0388 58.2813C62.4656 53.7219 61.1705 47.7364 58.9994 42.2091C59.0011 42.21 59.003 42.211 59.0047 42.2119C65.0993 45.3773 69.1959 50.2178 70.7211 52.2219C69.3002 53.3896 66.2325 55.7749 62.0388 58.2813ZM73.1747 51.1958C72.2085 49.8472 69.4014 46.2247 64.9805 42.9279C66.9088 42.5472 68.7452 41.7934 70.3832 40.706C75.0375 41.2702 79.3654 43.8686 81.9796 48.065C79.0947 49.3565 77.0892 51.2501 73.1747 51.1958ZM84.0485 36.1955C83.3103 38.5143 81.8431 40.5185 79.8741 41.9216C77.8472 40.337 75.4954 39.1854 72.9516 38.5574C77.518 33.9877 77.2753 34.2421 77.3542 34.1455C77.7681 33.6379 77.7365 32.8911 77.2657 32.4203C76.9835 32.1381 76.6944 31.8648 76.3989 31.6006C78.2038 31.2655 80.0787 31.376 81.848 31.9391L85.0765 32.9669L84.0485 36.1955Z" fill="black"/>
</g>
</g>
<defs>
<clipPath id="clip0_43_615">
<rect width="88" height="88" fill="white"/>
</clipPath>
</defs>
</svg>
